<svg width="1596" height="1115" viewBox="0 0 1596 1115" fill="none" xmlns="http://www.w3.org/2000/svg">
<path d="M786.785 410.73C745.483 378.374 738.229 318.663 770.585 277.36L771.818 275.785C804.173 234.483 863.885 227.229 905.188 259.585L1109.86 419.921L991.461 571.066L786.785 410.73Z" fill="#EA555C"/>
<path d="M851.278 460.77L969.681 309.625L1131.65 436.506C1172.95 468.861 1180.21 528.573 1147.85 569.876L1146.62 571.45C1114.26 612.753 1054.55 620.006 1013.25 587.651L851.278 460.77Z" fill="#EA555C"/>
<path d="M199.379 684.857C157.196 653.658 148.292 594.17 179.491 551.987L180.68 550.379C211.879 508.196 271.367 499.292 313.55 530.491L522.588 685.098L408.417 839.464L199.379 684.857Z" fill="#EA555C"/>
<path d="M408.417 839.464L522.588 685.097L598.967 741.588C641.15 772.787 650.055 832.275 618.856 874.458L617.666 876.066C586.467 918.249 526.979 927.154 484.796 895.955L408.417 839.464Z" fill="#EA555C"/>
<path d="M1119.59 847.996C1077.29 816.953 1068.16 757.499 1099.21 715.2L1100.39 713.588C1131.43 671.289 1190.89 662.165 1233.19 693.208L1442.8 847.039L1329.2 1001.83L1119.59 847.996Z" fill="#EA555C"/>
<path d="M1329.2 1001.83L1442.8 847.039L1519.38 903.247C1561.68 934.289 1570.81 993.744 1539.76 1036.04L1538.58 1037.65C1507.54 1079.95 1448.08 1089.08 1405.78 1058.03L1329.2 1001.83Z" fill="#EA555C"/>
<path d="M713.608 803.85C671.901 772.018 663.896 712.402 695.728 670.695L696.942 669.105C728.774 627.398 788.389 619.393 830.097 651.225L958.874 749.512L842.386 902.137L713.608 803.85Z" fill="#EA555C"/>
<path d="M842.386 902.137L958.874 749.512L1034.39 807.15C1076.1 838.982 1084.1 898.598 1052.27 940.305L1051.06 941.895C1019.23 983.602 959.611 991.607 917.903 959.775L842.386 902.137Z" fill="#EA555C"/>
<path d="M274.442 355.489C233.487 322.694 226.872 262.908 259.667 221.953L260.917 220.392C293.711 179.437 353.497 172.822 394.452 205.617L597.403 368.131L477.393 518.003L274.442 355.489Z" fill="#EA555C"/>
<path d="M477.393 518.003L597.403 368.131L671.558 427.511C712.513 460.306 719.128 520.092 686.333 561.047L685.083 562.608C652.289 603.563 592.503 610.178 551.548 577.383L477.393 518.003Z" fill="#EA555C"/>
<ellipse cx="1089" cy="184.5" rx="35" ry="32.5" fill="#FAAFB2"/>
<ellipse cx="1336" cy="592.5" rx="24" ry="21.5" fill="#FAAFB2"/>
<ellipse cx="103" cy="35" rx="42" ry="35" fill="#FAAFB2"/>
<circle cx="705.5" cy="1036.5" r="61.5" fill="#FAAFB2"/>
<circle cx="61.5" cy="429.5" r="61.5" fill="#FAAFB2"/>
<circle cx="675.5" cy="61.5" r="61.5" fill="#FAAFB2"/>
<ellipse cx="364.5" cy="1002.5" rx="84.5" ry="82.5" fill="#FAAFB2"/>
</svg>
