<svg xmlns="http://www.w3.org/2000/svg" x="0px" y="0px"
width="50" height="50"
viewBox="0 0 192 192"
style=" fill:#000000;"><g fill="none" fill-rule="nonzero" stroke="none" stroke-width="1" stroke-linecap="butt" stroke-linejoin="miter" stroke-miterlimit="10" stroke-dasharray="" stroke-dashoffset="0" font-family="none" font-weight="none" font-size="none" text-anchor="none" style="mix-blend-mode: normal"><path d="M0,192v-192h192v192z" fill="none"></path><g id="original-icon" fill="#cccccc"><g id="surface1"><path d="M61.44,23.04c-4.455,0 -7.68,3.225 -7.68,7.68v11.52h-42.24c-4.455,0 -7.68,3.225 -7.68,7.68v107.52c0,4.455 3.225,7.68 7.68,7.68h168.96c4.455,0 7.68,-3.225 7.68,-7.68v-107.52c0,-4.455 -3.225,-7.68 -7.68,-7.68h-42.24v-11.52c0,-4.455 -3.225,-7.68 -7.68,-7.68zM96,49.92c27.645,0 49.92,22.275 49.92,49.92c0,27.645 -22.275,49.92 -49.92,49.92c-27.645,0 -49.92,-22.275 -49.92,-49.92c0,-27.645 22.275,-49.92 49.92,-49.92zM165.12,57.6c4.245,0 7.68,3.435 7.68,7.68c0,4.245 -3.435,7.68 -7.68,7.68c-4.245,0 -7.68,-3.435 -7.68,-7.68c0,-4.245 3.435,-7.68 7.68,-7.68zM96,61.44c-21.12,0 -38.4,17.28 -38.4,38.4c0,21.12 17.28,38.4 38.4,38.4c21.12,0 38.4,-17.28 38.4,-38.4c0,-21.12 -17.28,-38.4 -38.4,-38.4z"></path></g></g></g></svg>