<svg xmlns="http://www.w3.org/2000/svg" x="0px" y="0px"
width="50" height="50"
viewBox="0 0 172 172"
style=" fill:#000000;"><g fill="none" fill-rule="nonzero" stroke="none" stroke-width="1" stroke-linecap="butt" stroke-linejoin="miter" stroke-miterlimit="10" stroke-dasharray="" stroke-dashoffset="0" font-family="none" font-weight="none" font-size="none" text-anchor="none" style="mix-blend-mode: normal"><path d="M0,172v-172h172v172z" fill="none"></path><g fill="#10003b"><path d="M141.04,13.76h-110.08c-9.4944,0 -17.2,7.7056 -17.2,17.2v110.08c0,9.4944 7.7056,17.2 17.2,17.2h110.08c9.4944,0 17.2,-7.7056 17.2,-17.2v-110.08c0,-9.4944 -7.7056,-17.2 -17.2,-17.2zM119.4024,114.5176l-4.8848,4.8848l-28.5176,-28.5176l-28.5176,28.5176l-4.8848,-4.8848l28.5176,-28.5176l-28.5176,-28.5176l4.8848,-4.8848l28.5176,28.5176l28.5176,-28.5176l4.8848,4.8848l-28.5176,28.5176z"></path></g></g></svg>