<svg xmlns="http://www.w3.org/2000/svg" x="0px" y="0px"
width="50" height="50"
viewBox="0 0 192 192"
style=" fill:#000000;"><g fill="none" fill-rule="nonzero" stroke="none" stroke-width="1" stroke-linecap="butt" stroke-linejoin="miter" stroke-miterlimit="10" stroke-dasharray="" stroke-dashoffset="0" font-family="none" font-weight="none" font-size="none" text-anchor="none" style="mix-blend-mode: normal"><path d="M0,192v-192h192v192z" fill="none"></path><g fill="#ffffff"><g id="surface1"><path d="M75.06,11.52c-36.795,0 -67.38,26.73 -67.38,60.345c0,16.14 7.215,30.795 18.66,41.61l-0.36,1.77c-2.58,7.56 -8.925,11.835 -12.69,13.2c-2.19,0.78 -4.005,1.965 -5.01,4.035c-0.99,2.055 -0.39,4.905 1.11,6.39c3.51,3.525 8.07,3.18 11.4,3.21c12.525,0.15 27.285,-6.42 36.225,-10.89l0.105,-0.045l3.06,-1.77l-1.17,-0.36l0.135,0.03c4.98,1.155 10.2,1.515 15.33,1.515c32.355,0 60.195,-19.335 66.345,-47.16v-0.015c0.825,-3.705 1.26,-7.56 1.26,-11.52c0,-33.585 -30.225,-60.345 -67.02,-60.345zM75.06,19.2c33.09,0 59.34,23.7 59.34,52.665c0,3.405 -0.375,6.705 -1.08,9.87c-5.25,23.76 -29.535,41.145 -58.845,41.145c-4.74,0 -9.405,-0.36 -13.575,-1.32l-1.68,-0.495l-5.685,3.27c-8.49,4.245 -23.13,10.185 -32.655,10.065c-1.305,0 -1.425,-0.255 -2.34,-0.36c5.46,-2.67 11.76,-7.515 14.76,-16.425l0.06,-0.195l1.38,-6.48l-1.695,-1.5c-10.995,-9.615 -17.685,-22.95 -17.685,-37.575c0,-28.935 26.61,-52.665 59.7,-52.665zM42.24,46.08v7.68h65.28v-7.68zM42.24,65.28v7.68h65.28v-7.68zM148.935,81.39c-0.195,1.23 -0.33,2.46 -0.6,3.675c-0.3,1.32 -0.69,2.61 -1.08,3.915c17.685,6.825 29.325,20.58 29.325,35.865c0,10.965 -5.7,21.21 -16.08,28.875l-2.085,1.545l0.645,2.52c2.07,7.935 9.33,12.03 14.355,14.76c-7.965,1.08 -25.275,-0.72 -33.975,-11.01l-1.455,-1.74l-2.22,0.45c-3.495,0.69 -7.545,1.035 -12.405,1.035c-23.88,0 -43.275,-9.255 -50.82,-23.1c-3.12,-0.06 -6.03,-0.27 -8.76,-0.6c7.125,18.87 30.03,31.38 59.58,31.38c4.425,0 8.28,-0.27 11.745,-0.795c8.475,8.58 22.29,12.3 33.48,12.3c0.735,0 1.47,-0.015 2.175,-0.045c6.495,-0.3 10.725,-1.8 12.6,-4.455c0.825,-1.2 1.11,-2.61 0.78,-3.99c-0.645,-2.745 -3.165,-4.095 -6.66,-5.97c-3.435,-1.86 -7.95,-4.305 -10.065,-7.95c10.755,-8.88 16.845,-20.82 16.845,-33.21c0,-18.84 -14.085,-35.655 -35.325,-43.455zM42.24,84.48v7.68h46.08v-7.68zM138.3,107.52c-1.92,2.7 -4.035,5.28 -6.36,7.68h17.82v-7.68zM117.465,126.72c-5.295,3.18 -11.1,5.775 -17.265,7.68h49.56v-7.68z"></path></g></g></g></svg>