<svg xmlns="http://www.w3.org/2000/svg" x="0px" y="0px"
width="50" height="50"
viewBox="0 0 192 192"
style=" fill:#000000;"><g fill="none" fill-rule="nonzero" stroke="none" stroke-width="1" stroke-linecap="butt" stroke-linejoin="miter" stroke-miterlimit="10" stroke-dasharray="" stroke-dashoffset="0" font-family="none" font-weight="none" font-size="none" text-anchor="none" style="mix-blend-mode: normal"><path d="M0,192v-192h192v192z" fill="none"></path><g fill="#fff"><g id="surface1"><path d="M161.04,33.12c-2.55,0.09 -4.89,1.44 -6.24,3.6l-72.24,110.52l-46.8,-40.44c-2.01,-2.085 -5.025,-2.865 -7.8,-1.995c-2.76,0.855 -4.815,3.195 -5.295,6.045c-0.48,2.865 0.675,5.745 3.015,7.47l53.52,46.32c1.68,1.425 3.9,2.055 6.075,1.74c2.19,-0.33 4.125,-1.575 5.325,-3.42l77.16,-117.84c1.65,-2.415 1.785,-5.535 0.36,-8.085c-1.425,-2.535 -4.17,-4.05 -7.08,-3.915z"></path></g></g></g></svg>