<svg xmlns="http://www.w3.org/2000/svg" x="0px" y="0px"
width="25" height="25"
viewBox="0 0 171 171"
style=" fill:#000000;"><g fill="none" fill-rule="nonzero" stroke="none" stroke-width="1" stroke-linecap="butt" stroke-linejoin="miter" stroke-miterlimit="10" stroke-dasharray="" stroke-dashoffset="0" font-family="none" font-weight="none" font-size="none" text-anchor="none" style="mix-blend-mode: normal"><path d="M0,171.99219v-171.99219h171.99219v171.99219z" fill="none"></path><g fill="#ffffff"><g id="surface1"><path d="M146.6325,29.4975c-0.10688,0.02672 -0.21375,0.0668 -0.32063,0.10688c-0.89508,0.22711 -1.66992,0.80156 -2.1375,1.60312l-69.89625,108.37125l-48.09375,-43.39125c-0.84164,-1.06875 -2.24438,-1.53633 -3.56695,-1.18898c-1.32258,0.34734 -2.29781,1.45617 -2.4982,2.80547c-0.20039,1.3493 0.41414,2.68524 1.5764,3.40664l50.97938,46.17c0.74813,0.65461 1.75008,0.94852 2.73867,0.80156c0.9886,-0.14695 1.85695,-0.70805 2.39133,-1.54969l72.14063,-111.79125c0.7882,-1.12219 0.82828,-2.60508 0.10688,-3.76734c-0.7214,-1.16227 -2.0707,-1.7768 -3.42,-1.57641z"></path></g></g></g></svg>