<svg xmlns="http://www.w3.org/2000/svg" x="0px" y="0px"
width="50" height="50"
viewBox="0 0 192 192"
style=" fill:#000000;"><g fill="none" fill-rule="nonzero" stroke="none" stroke-width="1" stroke-linecap="butt" stroke-linejoin="miter" stroke-miterlimit="10" stroke-dasharray="" stroke-dashoffset="0" font-family="none" font-weight="none" font-size="none" text-anchor="none" style="mix-blend-mode: normal"><path d="M0,192v-192h192v192z" fill="none"></path><g fill="#ffffff"><path d="M96,7.68c-48.73231,0 -88.32,39.58769 -88.32,88.32c0,48.73231 39.58769,88.32 88.32,88.32c48.73231,0 88.32,-39.58769 88.32,-88.32c0,-48.73231 -39.58769,-88.32 -88.32,-88.32zM96,15.36c44.58172,0 80.64,36.05828 80.64,80.64c0,44.58172 -36.05828,80.64 -80.64,80.64c-44.58172,0 -80.64,-36.05828 -80.64,-80.64c0,-44.58172 36.05828,-80.64 80.64,-80.64zM95.94,65.2275c-2.11782,0.0331 -3.809,1.77462 -3.78,3.8925v23.04h-23.04c-1.38484,-0.01959 -2.67295,0.708 -3.37109,1.90415c-0.69814,1.19615 -0.69814,2.67555 0,3.8717c0.69814,1.19615 1.98625,1.92374 3.37109,1.90415h23.04v23.04c-0.01959,1.38484 0.708,2.67295 1.90415,3.37109c1.19615,0.69814 2.67555,0.69814 3.8717,0c1.19615,-0.69814 1.92374,-1.98625 1.90415,-3.37109v-23.04h23.04c1.38484,0.01959 2.67295,-0.708 3.37109,-1.90415c0.69814,-1.19615 0.69814,-2.67555 0,-3.8717c-0.69814,-1.19615 -1.98625,-1.92374 -3.37109,-1.90415h-23.04v-23.04c0.01421,-1.03795 -0.39236,-2.03745 -1.12708,-2.77076c-0.73472,-0.73331 -1.735,-1.13795 -2.77292,-1.12174z"></path></g></g></svg>