<svg xmlns="http://www.w3.org/2000/svg" x="0px" y="0px"
width="50" height="50"
viewBox="0 0 192 192"
style=" fill:#000000;"><g fill="none" fill-rule="nonzero" stroke="none" stroke-width="1" stroke-linecap="butt" stroke-linejoin="miter" stroke-miterlimit="10" stroke-dasharray="" stroke-dashoffset="0" font-family="none" font-weight="none" font-size="none" text-anchor="none" style="mix-blend-mode: normal"><path d="M0,192v-192h192v192z" fill="none"></path><g fill="#000000"><path d="M99.84,15.45v11.43c0,2.12352 -1.72032,3.84 -3.84,3.84c-2.11968,0 -3.84,-1.71648 -3.84,-3.84v-11.4075c-2.4768,0.10368 -4.96596,0.28512 -7.485,0.6c-10.51008,1.31328 -20.49036,4.5759 -29.595,9.3375l4.2975,7.5375c1.05984,1.83936 0.42552,4.18266 -1.41,5.2425c-0.60672,0.34944 -1.26354,0.5175 -1.9125,0.5175c-1.32864,0 -2.6196,-0.6912 -3.33,-1.92l-4.2975,-7.5375c-10.81344,6.912 -20.03514,16.12968 -26.9625,26.97c0.04224,0.02304 0.08526,0.01446 0.1275,0.0375l7.575,4.32c1.83936,1.05984 2.46984,3.41448 1.41,5.25c-0.71424,1.2288 -2.00136,1.92 -3.33,1.92c-0.64896,0 -1.31328,-0.16806 -1.92,-0.5175l-7.575,-4.32c-0.04608,-0.02688 -0.07026,-0.07428 -0.1125,-0.105c-3.44832,6.6048 -6.12612,13.6737 -7.785,21.1425c-1.17888,5.31456 -1.85094,10.62402 -2.0775,15.8925h11.4225c2.11968,0 3.84,1.71648 3.84,3.84c0,2.12352 -1.72032,3.84 -3.84,3.84h-11.4c0.56448,13.1328 4.0137,25.82412 10.0425,37.275l7.44,-4.1025c1.824,-1.0752 4.1823,-0.45516 5.2575,1.365c1.0752,1.83168 0.46668,4.1823 -1.365,5.2575l-7.4625,4.11c2.8416,4.41216 6.08718,8.60106 9.7275,12.5025c0.71424,0.76416 1.73418,1.1925 2.7825,1.1925h11.8575v-7.68c0,-4.2432 3.4368,-7.68 7.68,-7.68h84.48c4.2432,0 7.68,3.4368 7.68,7.68v7.68h11.8575c1.04832,0 2.06442,-0.42834 2.7825,-1.1925c3.65952,-3.92064 6.9159,-8.1273 9.7575,-12.5625l-7.35,-4.53c-1.83168,-1.07136 -2.4402,-3.42966 -1.365,-5.2575c1.0752,-1.824 3.42582,-2.43654 5.2575,-1.3575l7.3125,4.5075c5.98272,-11.43168 9.39918,-24.10176 9.9675,-37.2h-11.34c-2.11968,-0.00768 -3.84,-1.72398 -3.84,-3.8475c0,-2.12352 1.72032,-3.84 3.84,-3.84h11.415c-0.57216,-13.25568 -4.15026,-25.72302 -9.9525,-36.8475l-8.6475,4.965c-0.60672,0.34944 -1.26354,0.51 -1.9125,0.51c-1.32864,0 -2.6196,-0.68736 -3.33,-1.92c-1.05984,-1.83936 -0.43302,-4.18266 1.4025,-5.2425l8.64,-4.9575c-7.01952,-10.99776 -16.38402,-20.32656 -27.4125,-27.3l-4.755,7.68c-0.71424,1.23264 -2.00136,1.92 -3.33,1.92c-0.64896,0 -1.30962,-0.16806 -1.9125,-0.5175c-1.83936,-1.05984 -2.46984,-3.40698 -1.41,-5.2425l4.7475,-7.6575c-11.04384,-5.69856 -23.38122,-9.21552 -36.5025,-9.78zM148.8975,71.5875l0.8625,1.3725l-31.0125,27.2475c-0.86465,-5.6513 -3.77808,-10.64178 -7.98,-14.1675zM96,88.32c2.0352,0 3.96708,0.41808 5.745,1.14l0.03,-0.0075c5.6363,2.26881 9.585,7.74787 9.585,14.2275c0,1.15926 -0.14304,2.27616 -0.3825,3.36l-0.015,0.0075c-0.38496,1.7136 -1.0548,3.31692 -1.9575,4.7625c-0.37546,0.60126 -0.81521,1.1607 -1.2675,1.7025c-0.12894,0.15405 -0.24767,0.31623 -0.3825,0.465c-0.43046,0.47654 -0.90106,0.90815 -1.3875,1.3275c-0.20206,0.17315 -0.40391,0.34744 -0.615,0.51c-0.47078,0.3649 -0.96535,0.70359 -1.4775,1.0125c-0.305,0.18218 -0.619,0.34886 -0.9375,0.51c-0.45757,0.234 -0.91965,0.45715 -1.4025,0.645c-0.48359,0.18561 -0.98612,0.32804 -1.4925,0.465c-0.38678,0.10617 -0.76401,0.23157 -1.1625,0.3075c-0.9338,0.17494 -1.89233,0.285 -2.88,0.285c-8.49024,0 -15.36,-6.88128 -15.36,-15.36c0,-8.47872 6.86976,-15.36 15.36,-15.36zM57.5925,157.44c-2.11968,0 -3.84,1.71648 -3.84,3.84v11.5125c0,2.12352 1.72032,3.84 3.84,3.84h76.815c2.11968,0 3.84,-1.71648 3.84,-3.84v-11.5125c0,-2.12352 -1.72032,-3.84 -3.84,-3.84z"></path></g></g></svg>