<svg xmlns="http://www.w3.org/2000/svg" x="0px" y="0px"
width="50" height="50"
viewBox="0 0 192 192"
style=" fill:#000000;"><g fill="none" fill-rule="nonzero" stroke="none" stroke-width="1" stroke-linecap="butt" stroke-linejoin="miter" stroke-miterlimit="10" stroke-dasharray="" stroke-dashoffset="0" font-family="none" font-weight="none" font-size="none" text-anchor="none" style="mix-blend-mode: normal"><path d="M0,192v-192h192v192z" fill="none"></path><g fill="#000000"><g id="surface1"><path d="M46.08,0c-4.2,0 -7.68,3.48 -7.68,7.68v7.68h-23.04c-4.11,0 -7.68,3.09 -7.68,7.515v154.56c0,2.205 1.275,4.335 2.82,5.43c1.545,1.08 3.225,1.455 4.86,1.455h161.28c1.635,0 3.315,-0.375 4.86,-1.455c1.545,-1.095 2.82,-3.225 2.82,-5.43v-154.56c0,-4.02 -3.255,-7.515 -7.365,-7.515h-23.355v-7.68c0,-4.2 -3.48,-7.68 -7.68,-7.68h-7.68c-4.2,0 -7.68,3.48 -7.68,7.68v7.68h-69.12v-7.68c0,-4.2 -3.48,-7.68 -7.68,-7.68zM46.08,7.68h7.68v23.04h-7.68zM138.24,7.68h7.68v23.04h-7.68zM15.36,23.04h23.04v7.68c0,4.2 3.48,7.68 7.68,7.68h7.68c4.2,0 7.68,-3.48 7.68,-7.68v-7.68h69.12v7.68c0,4.2 3.48,7.68 7.68,7.68h7.68c4.2,0 7.68,-3.48 7.68,-7.68v-7.68h23.04v26.88h-161.28zM15.36,57.6h161.28v119.04h-161.28zM125.58,79.17l-2.085,3.225l-31.275,48.525l-20.52,-18.57l-2.85,-2.565l-5.145,5.685l2.835,2.58l27.24,24.63l36.165,-56.115l2.085,-3.225z"></path></g></g></g></svg>