<svg xmlns="http://www.w3.org/2000/svg" x="0px" y="0px"
width="50" height="50"
viewBox="0 0 192 192"
style=" fill:#000000;"><g fill="none" fill-rule="nonzero" stroke="none" stroke-width="1" stroke-linecap="butt" stroke-linejoin="miter" stroke-miterlimit="10" stroke-dasharray="" stroke-dashoffset="0" font-family="none" font-weight="none" font-size="none" text-anchor="none" style="mix-blend-mode: normal"><path d="M0,192v-192h192v192z" fill="none"></path><g fill="#000000"><g id="surface1"><path d="M80.64,0c-6.315,0 -11.52,5.205 -11.52,11.52v3.84h-31.92c-4.74,0 -8.88,3.255 -10.44,7.68c-8.295,0.27 -14.985,7.095 -15.24,15.6c0.135,2.01 1.8,3.6 3.84,3.6h161.28c2.04,0 3.72,-1.59 3.84,-3.6c-0.255,-8.505 -6.945,-15.33 -15.24,-15.6c-1.56,-4.425 -5.7,-7.68 -10.44,-7.68h-31.92v-3.84c0,-6.315 -5.205,-11.52 -11.52,-11.52zM80.64,7.68h30.72c2.13,0 3.84,1.71 3.84,3.84v3.84h-38.4v-3.84c0,-2.13 1.71,-3.84 3.84,-3.84zM20.28,49.92l18.96,129.6c1.035,7.245 7.125,12.48 14.52,12.48h84.48c7.11,0 12.9,-4.905 14.52,-12.48l18.96,-129.6zM47.16,62.64c2.1,-0.255 4.035,1.14 4.32,3.24l12.6,95.64c0.27,2.1 -1.14,4.05 -3.24,4.32c-0.165,0.03 -0.435,0 -0.6,0c-1.89,0 -3.465,-1.305 -3.72,-3.24l-12.72,-95.64c-0.285,-2.1 1.26,-4.035 3.36,-4.32zM79.68,62.64c2.025,-0.105 3.99,1.47 4.08,3.6l4.2,95.64c0.09,2.115 -1.605,3.87 -3.72,3.96c-0.06,0 -0.06,0 -0.12,0c-2.04,0 -3.75,-1.545 -3.84,-3.6l-4.2,-95.64c-0.09,-2.115 1.485,-3.87 3.6,-3.96zM112.32,62.64c2.115,0.09 3.69,1.845 3.6,3.96l-4.2,95.64c-0.09,2.055 -1.8,3.6 -3.84,3.6c-0.06,0 -0.06,0 -0.12,0c-2.115,-0.09 -3.81,-1.845 -3.72,-3.96l4.2,-95.64c0.09,-2.115 1.995,-3.645 4.08,-3.6zM144.84,62.64c2.1,0.27 3.645,2.22 3.36,4.32l-12.72,95.64c-0.255,1.935 -1.83,3.24 -3.72,3.24c-0.165,0 -0.42,0.03 -0.6,0c-2.1,-0.27 -3.525,-2.22 -3.24,-4.32l12.6,-95.64c0.27,-2.1 2.205,-3.51 4.32,-3.24z"></path></g></g></g></svg>