<svg xmlns="http://www.w3.org/2000/svg" x="0px" y="0px"
width="50" height="50"
viewBox="0 0 192 192"
style=" fill:#000000;"><g fill="none" fill-rule="nonzero" stroke="none" stroke-width="1" stroke-linecap="butt" stroke-linejoin="miter" stroke-miterlimit="10" stroke-dasharray="" stroke-dashoffset="0" font-family="none" font-weight="none" font-size="none" text-anchor="none" style="mix-blend-mode: normal"><path d="M0,192v-192h192v192z" fill="none"></path><g fill="#000000"><path d="M7.68,7.68v130.56h11.52v-119.04h122.88v-11.52zM26.88,26.88v130.56h11.52v-119.04h122.88v-11.52zM46.08,46.08v130.56h108.84c5.47985,5.42637 9.34166,9.2175 9.435,9.2175l1.1475,1.1475c6.144,6.144 16.131,6.912 22.275,0c5.76,-6.144 5.3775,-15.357 -0.3825,-21.885l-1.155,-1.155l-6.1425,-6.1425v-111.7425zM105.2175,104.835l15.33,4.215l-10.8525,11.1zM126.0075,114.45l53.5125,53.1675l-11.325,11.325l-0.195,0.195l-53.04,-53.385z"></path></g></g></svg>