<svg xmlns="http://www.w3.org/2000/svg" x="0px" y="0px"
width="50" height="50"
viewBox="0 0 192 192"
style=" fill:#000000;"><g fill="none" fill-rule="nonzero" stroke="none" stroke-width="1" stroke-linecap="butt" stroke-linejoin="miter" stroke-miterlimit="10" stroke-dasharray="" stroke-dashoffset="0" font-family="none" font-weight="none" font-size="none" text-anchor="none" style="mix-blend-mode: normal"><path d="M0,192v-192h192v192z" fill="none"></path><g fill="#ffffff"><g id="surface1"><path d="M46.08,0c-4.2,0 -7.68,3.48 -7.68,7.68v7.68h-23.04c-2.01,0 -4.05,0.735 -5.49,2.19c-1.455,1.44 -2.19,3.48 -2.19,5.49v153.6c0,2.01 0.735,4.05 2.19,5.505c1.44,1.44 3.48,2.175 5.49,2.175h161.28c2.01,0 4.05,-0.735 5.505,-2.175c1.44,-1.455 2.175,-3.495 2.175,-5.505v-153.6c0,-2.01 -0.735,-4.05 -2.175,-5.49c-1.455,-1.455 -3.495,-2.19 -5.505,-2.19h-23.04v-7.68c0,-4.2 -3.48,-7.68 -7.68,-7.68h-7.68c-4.2,0 -7.68,3.48 -7.68,7.68v7.68h-69.12v-7.68c0,-4.2 -3.48,-7.68 -7.68,-7.68zM46.08,7.68h7.68v23.04h-7.68zM138.24,7.68h7.68v23.04h-7.68zM15.36,23.04h23.04v7.68c0,4.2 3.48,7.68 7.68,7.68h7.68c4.2,0 7.68,-3.48 7.68,-7.68v-7.68h69.12v7.68c0,4.2 3.48,7.68 7.68,7.68h7.68c4.2,0 7.68,-3.48 7.68,-7.68v-7.68h23.04v26.88h-161.28zM15.36,57.6h161.28v119.04h-161.28zM38.4,72.96v88.32h115.2v-88.32zM46.08,80.64h19.2v19.2h-19.2zM72.96,80.64h19.2v19.2h-19.2zM99.84,80.64h19.2v19.2h-19.2zM126.72,80.64h19.2v19.2h-19.2zM46.08,107.52h19.2v19.2h-19.2zM72.96,107.52h19.2v19.2h-19.2zM99.84,107.52h19.2v19.2h-19.2zM126.72,107.52h19.2v19.2h-19.2zM46.08,134.4h19.2v19.2h-19.2zM72.96,134.4h19.2v19.2h-19.2zM99.84,134.4h19.2v19.2h-19.2zM126.72,134.4h19.2v19.2h-19.2z"></path></g></g></g></svg>