<svg xmlns="http://www.w3.org/2000/svg" x="0px" y="0px"
width="50" height="50"
viewBox="0 0 171 171"
style=" fill:#000000;"><g fill="none" fill-rule="nonzero" stroke="none" stroke-width="1" stroke-linecap="butt" stroke-linejoin="miter" stroke-miterlimit="10" stroke-dasharray="" stroke-dashoffset="0" font-family="none" font-weight="none" font-size="none" text-anchor="none" style="mix-blend-mode: normal"><path d="M0,171.99219v-171.99219h171.99219v171.99219z" fill="none"></path><g fill="#000000"><path d="M85.5,6.84c-43.40221,0 -78.66,35.25779 -78.66,78.66c0,43.40221 35.25779,78.66 78.66,78.66c43.40221,0 78.66,-35.25779 78.66,-78.66c0,-43.40221 -35.25779,-78.66 -78.66,-78.66zM85.5,13.68c39.7056,0 71.82,32.1144 71.82,71.82c0,39.7056 -32.1144,71.82 -71.82,71.82c-39.7056,0 -71.82,-32.1144 -71.82,-71.82c0,-39.7056 32.1144,-71.82 71.82,-71.82zM81.39867,48.90867c-1.026,0 -1.36933,0.67866 -1.36933,1.36266v46.17c0,1.026 0.68533,1.36933 1.36933,1.36933h7.86199c1.026,0 1.36934,-0.68533 1.36934,-1.36933v-46.17c0,-1.026 -0.68534,-1.36266 -1.36934,-1.36266zM81.39867,110.46867c-1.026,0 -1.36933,0.67866 -1.36933,1.36266v8.89734c0,1.026 0.68533,1.36266 1.36933,1.36266h8.20266c1.026,0 1.36933,-0.67866 1.36933,-1.36266v-8.89734c0,-1.026 -0.68533,-1.36266 -1.36933,-1.36266z"></path></g></g></svg>