<svg xmlns="http://www.w3.org/2000/svg" x="0px" y="0px"
width="50" height="50"
viewBox="0 0 192 192"
style=" fill:#000000;"><g fill="none" fill-rule="nonzero" stroke="none" stroke-width="1" stroke-linecap="butt" stroke-linejoin="miter" stroke-miterlimit="10" stroke-dasharray="" stroke-dashoffset="0" font-family="none" font-weight="none" font-size="none" text-anchor="none" style="mix-blend-mode: normal"><path d="M0,192v-192h192v192z" fill="none"></path><g fill="#333333"><path d="M95.94,7.6275c-0.21903,0.00385 -0.43732,0.02643 -0.6525,0.0675c-48.15195,0.38384 -87.18851,39.4078 -87.5925,87.555c-0.09271,0.48057 -0.09271,0.97443 0,1.455c0.37983,48.15541 39.40529,87.19599 87.555,87.6c0.48057,0.09271 0.97443,0.09271 1.455,0c48.15541,-0.37983 87.19599,-39.40529 87.6,-87.555c0.09271,-0.48057 0.09271,-0.97443 0,-1.455c-0.37995,-48.17048 -39.42952,-87.22005 -87.6,-87.6c-0.2521,-0.048 -0.50839,-0.07062 -0.765,-0.0675zM92.16,15.4575v3.7425c-0.01959,1.38484 0.708,2.67295 1.90415,3.37109c1.19615,0.69814 2.67555,0.69814 3.8717,0c1.19615,-0.69814 1.92374,-1.98625 1.90415,-3.37109v-3.7425c41.52107,1.94085 74.76165,35.18143 76.7025,76.7025h-3.7425c-1.38484,-0.01959 -2.67295,0.708 -3.37109,1.90415c-0.69814,1.19615 -0.69814,2.67555 0,3.8717c0.69814,1.19615 1.98625,1.92374 3.37109,1.90415h3.7425c-1.94085,41.52107 -35.18143,74.76165 -76.7025,76.7025v-3.7425c0.01421,-1.03795 -0.39236,-2.03745 -1.12708,-2.77076c-0.73472,-0.73331 -1.735,-1.13795 -2.77292,-1.12174c-2.11782,0.0331 -3.809,1.77462 -3.78,3.8925v3.7425c-41.52107,-1.94085 -74.76165,-35.18143 -76.7025,-76.7025h3.7425c1.38484,0.01959 2.67295,-0.708 3.37109,-1.90415c0.69814,-1.19615 0.69814,-2.67555 0,-3.8717c-0.69814,-1.19615 -1.98625,-1.92374 -3.37109,-1.90415h-3.7425c1.94085,-41.52107 35.18143,-74.76165 76.7025,-76.7025zM141.945,46.08c-0.72115,0.02608 -1.42037,0.25482 -2.0175,0.66l-54.9975,37.155c-0.40816,0.27546 -0.75955,0.62684 -1.035,1.035l-37.155,54.9975c-1.03067,1.52433 -0.83529,3.56553 0.46584,4.86666c1.30113,1.30113 3.34232,1.49652 4.86666,0.46584l55.005,-37.155c0.40816,-0.27546 0.75954,-0.62684 1.035,-1.035l37.1475,-54.9975c0.81123,-1.197 0.88133,-2.74821 0.18138,-4.0135c-0.69995,-1.2653 -2.05129,-2.03017 -3.49638,-1.979zM89.8425,89.8425l12.315,12.315l-37.9575,25.6425z"></path></g></g></svg>