<svg xmlns="http://www.w3.org/2000/svg" x="0px" y="0px"
width="50" height="50"
viewBox="0 0 192 192"
style=" fill:#000000;"><g fill="none" fill-rule="nonzero" stroke="none" stroke-width="1" stroke-linecap="butt" stroke-linejoin="miter" stroke-miterlimit="10" stroke-dasharray="" stroke-dashoffset="0" font-family="none" font-weight="none" font-size="none" text-anchor="none" style="mix-blend-mode: normal"><path d="M0,192v-192h192v192z" fill="none"></path><g fill="#000000"><g id="surface1"><path d="M0,15.36v161.28h192v-161.28zM7.68,23.04h176.64v145.92h-176.64zM15.36,30.72v87.12l51.12,-47.64c0.75,-0.705 1.755,-1.185 2.76,-1.08c1.02,0.045 2.07,0.45 2.76,1.2l39.48,43.2l16.32,-16.44c1.5,-1.5 4.02,-1.5 5.52,0l43.32,43.44v-109.8zM134.4,57.6c6.36,0 11.52,5.16 11.52,11.52c0,6.36 -5.16,11.52 -11.52,11.52c-6.36,0 -11.52,-5.16 -11.52,-11.52c0,-6.36 5.16,-11.52 11.52,-11.52zM68.88,78.36l-53.52,50.04v32.88h161.28v-9.96l-46.08,-46.08l-29.16,29.16h-10.8l15.48,-15.48z"></path></g></g></g></svg>