<svg xmlns="http://www.w3.org/2000/svg" x="0px" y="0px"
width="50" height="50"
viewBox="0 0 192 192"
style=" fill:#000000;"><g fill="none" fill-rule="nonzero" stroke="none" stroke-width="1" stroke-linecap="butt" stroke-linejoin="miter" stroke-miterlimit="10" stroke-dasharray="" stroke-dashoffset="0" font-family="none" font-weight="none" font-size="none" text-anchor="none" style="mix-blend-mode: normal"><path d="M0,192v-192h192v192z" fill="none"></path><g fill="#333333"><g id="surface1"><path d="M96,11.52c-25.485,0 -46.08,20.595 -46.08,46.08v19.2h-15.36c-6.525,0 -11.52,4.995 -11.52,11.52v92.16c0,6.525 4.995,11.52 11.52,11.52h122.88c6.525,0 11.52,-4.995 11.52,-11.52v-92.16c0,-6.525 -4.995,-11.52 -11.52,-11.52h-15.36v-19.2c0,-25.485 -20.595,-46.08 -46.08,-46.08zM96,19.2c21.375,0 38.4,17.025 38.4,38.4v19.2h-76.8v-19.2c0,-21.375 17.025,-38.4 38.4,-38.4zM96,115.2c6.525,0 11.52,4.995 11.52,11.52c0,3.45 -1.53,6.48 -3.84,8.4v10.8c0,4.23 -3.45,7.68 -7.68,7.68c-4.23,0 -7.68,-3.45 -7.68,-7.68v-10.8c-2.31,-1.92 -3.84,-4.95 -3.84,-8.4c0,-6.525 4.995,-11.52 11.52,-11.52z"></path></g></g></g></svg>