<svg xmlns="http://www.w3.org/2000/svg" x="0px" y="0px"
width="50" height="50"
viewBox="0 0 192 192"
style=" fill:#000000;"><g fill="none" fill-rule="nonzero" stroke="none" stroke-width="1" stroke-linecap="butt" stroke-linejoin="miter" stroke-miterlimit="10" stroke-dasharray="" stroke-dashoffset="0" font-family="none" font-weight="none" font-size="none" text-anchor="none" style="mix-blend-mode: normal"><path d="M0,192v-192h192v192z" fill="none"></path><g fill="#000000"><g id="surface1"><path d="M11.52,15.36c-2.115,0 -3.84,1.725 -3.84,3.84v130.56c0,1.41 0.765,2.7 2.01,3.36l42.225,23.04c1.155,0.63 2.535,0.63 3.69,0l40.47,-22.065l44.28,22.14c1.185,0.585 2.58,0.525 3.705,-0.135l38.4,-23.04c1.155,-0.705 1.86,-1.95 1.86,-3.3v-130.56c0,-1.38 -0.75,-2.655 -1.95,-3.345c-1.2,-0.675 -2.67,-0.66 -3.87,0.045l-36.585,21.96l-44.19,-22.095c-1.125,-0.555 -2.46,-0.54 -3.57,0.075l-40.395,22.02l-40.41,-22.02c-0.555,-0.315 -1.185,-0.48 -1.83,-0.48zM96.075,23.535l44.28,22.14c1.185,0.585 2.58,0.525 3.705,-0.135l32.58,-19.56v121.605l-34.725,20.835l-44.19,-22.095c-1.125,-0.555 -2.46,-0.54 -3.57,0.075l-40.395,22.02l-38.4,-20.94v-121.815l36.555,19.935c1.155,0.63 2.535,0.63 3.69,0zM65.28,57.6l-23.04,3.84h-7.68l-7.68,7.68v3.84h7.68l3.84,15.36l11.52,11.52l-3.84,7.68l7.68,7.68l3.84,19.2l7.68,3.84l3.84,-19.2l3.84,-3.84l3.84,-7.68l-7.68,-7.68l-15.36,-3.84v-7.68l15.36,-15.36l-7.68,-7.68l3.84,-3.84zM72.96,57.6l-3.84,7.68l3.84,7.68l11.52,-7.68v-7.68zM130.56,61.44l-26.88,3.84l-11.52,7.68v11.52l11.52,-7.68v3.84l-15.36,11.52l-3.84,11.52l11.52,7.68l3.84,19.2l7.68,7.68l11.52,-23.04v-7.68l-7.68,-11.52l-7.68,-3.84h7.68l7.68,7.68l11.52,-7.68l3.84,7.68l3.84,-7.68l7.68,7.68l3.84,-7.68l7.68,-7.68l-3.84,-11.52l11.52,-7.68zM157.44,111.36l-15.36,7.68v7.68h7.68l7.68,7.68l3.84,-11.52z"></path></g></g></g></svg>