<svg xmlns="http://www.w3.org/2000/svg" x="0px" y="0px"
width="50" height="50"
viewBox="0 0 171 171"
style=" fill:#000000;"><g fill="none" fill-rule="nonzero" stroke="none" stroke-width="1" stroke-linecap="butt" stroke-linejoin="miter" stroke-miterlimit="10" stroke-dasharray="" stroke-dashoffset="0" font-family="none" font-weight="none" font-size="none" text-anchor="none" style="mix-blend-mode: normal"><path d="M0,171.99219v-171.99219h171.99219v171.99219z" fill="none" stroke="none"></path><g id="original-icon" fill="#ddd" stroke="none" opacity="0" visibility="hidden"><path d="M28.5,28.5c-6.62625,0 -12.16727,4.58071 -13.74902,10.71533l70.74902,44.33642l70.79077,-44.21118c-1.539,-6.20587 -7.11465,-10.84058 -13.79077,-10.84058zM14.25,55.10742v73.14258c0,7.85888 6.39112,14.25 14.25,14.25h114c7.85888,0 14.25,-6.39112 14.25,-14.25v-72.9895l-71.25,44.4895z"></path></g><g id="subtracted-icon" fill="#ddd" stroke="none"><path d="M142.5,28.5c6.67613,0 12.25177,4.6347 13.79077,10.84058l-70.79077,44.21118l-70.74902,-44.33642c1.58175,-6.13462 7.12277,-10.71533 13.74902,-10.71533zM85.5,99.75l71.25,-44.4895v35.05657c-6.48229,-3.08788 -13.73094,-4.81707 -21.375,-4.81707c-27.49537,0 -49.875,22.3725 -49.875,49.875c0,2.41858 0.17307,4.79749 0.50748,7.125h-57.50748c-7.85888,0 -14.25,-6.39112 -14.25,-14.25v-73.14258z"></path></g><g stroke="none"><g id="Filled_3_" fill="#ea4031"><path d="M135.375,99.75c-19.59375,0 -35.625,16.03125 -35.625,35.625c0,19.59375 16.03125,35.625 35.625,35.625c19.59375,0 35.625,-16.03125 35.625,-35.625c0,-19.59375 -16.03125,-35.625 -35.625,-35.625zM139.9065,154.5555c-0.228,0.5985 -0.54862,1.1115 -0.969,1.54613c-0.4275,0.43462 -0.9405,0.78375 -1.54612,1.026c-0.5985,0.24225 -1.27538,0.36337 -2.01638,0.36337c-0.74813,0 -1.41788,-0.12112 -2.0235,-0.3705c-0.59137,-0.23512 -1.1115,-0.58425 -1.53187,-1.01887c-0.42038,-0.43463 -0.741,-0.94763 -0.97612,-1.54613c-0.23513,-0.5985 -0.34913,-1.23262 -0.34913,-1.9095c0,-0.70538 0.12113,-1.35375 0.34913,-1.94513c0.23513,-0.5985 0.56287,-1.1115 0.98325,-1.54612c0.42038,-0.43463 0.9405,-0.78375 1.53188,-1.04025c0.60562,-0.2565 1.27537,-0.38475 2.01637,-0.38475c0.741,0 1.41788,0.12825 2.01638,0.38475c0.60563,0.2565 1.11862,0.5985 1.54612,1.03313c0.42038,0.43462 0.74813,0.94762 0.97612,1.54612c0.228,0.59137 0.34913,1.23975 0.34913,1.94512c-0.00713,0.684 -0.12113,1.31813 -0.35625,1.91663zM139.52175,142.40025h-8.2935l-1.17562,-28.40025h10.65187z"></path></g><g id="Filled_3_" fill="#000000" opacity="0"><path d="M185.25,135.375c0,27.5025 -22.37963,49.875 -49.875,49.875c-27.49537,0 -49.875,-22.3725 -49.875,-49.875c0,-27.5025 22.37963,-49.875 49.875,-49.875c27.49537,0 49.875,22.3725 49.875,49.875z"></path></g></g><path d="M99.75,171v-71.25h71.25v71.25z" id="overlay-drag" fill="#ff0000" stroke="none" opacity="0"></path></g></svg>