<svg xmlns="http://www.w3.org/2000/svg" x="0px" y="0px"
width="50" height="50"
viewBox="0 0 192 192"
style=" fill:#000000;"><g fill="none" fill-rule="nonzero" stroke="none" stroke-width="1" stroke-linecap="butt" stroke-linejoin="miter" stroke-miterlimit="10" stroke-dasharray="" stroke-dashoffset="0" font-family="none" font-weight="none" font-size="none" text-anchor="none" style="mix-blend-mode: normal"><path d="M0,192v-192h192v192z" fill="none"></path><g fill="#333333"><g id="surface1"><path d="M42.24,15.36c-6.345,0 -11.52,5.175 -11.52,11.52v19.2h-3.84c-1.38,-0.015 -2.67,0.705 -3.375,1.905c-0.69,1.2 -0.69,2.67 0,3.87c0.705,1.2 1.995,1.92 3.375,1.905h15.36c1.35,0.015 2.61,-0.675 3.315,-1.815c0.3,0.54 0.525,1.14 0.525,1.815c0,2.115 -1.725,3.84 -3.84,3.84h-11.52v11.52h-3.84c-1.38,-0.015 -2.67,0.705 -3.375,1.905c-0.69,1.2 -0.69,2.67 0,3.87c0.705,1.2 1.995,1.92 3.375,1.905h15.36c1.35,0.015 2.61,-0.675 3.315,-1.815c0.3,0.54 0.525,1.14 0.525,1.815c0,2.115 -1.725,3.84 -3.84,3.84h-11.52v11.52h-3.84c-1.38,-0.015 -2.67,0.705 -3.375,1.905c-0.69,1.2 -0.69,2.67 0,3.87c0.705,1.2 1.995,1.92 3.375,1.905h15.36c1.35,0.015 2.61,-0.675 3.315,-1.815c0.3,0.54 0.525,1.14 0.525,1.815c0,2.13 -1.725,3.84 -3.84,3.84h-11.52v11.52h-3.84c-1.38,-0.015 -2.67,0.705 -3.375,1.905c-0.69,1.2 -0.69,2.67 0,3.87c0.705,1.2 1.995,1.92 3.375,1.905h15.36c1.35,0.015 2.61,-0.675 3.315,-1.815c0.3,0.54 0.525,1.14 0.525,1.815c0,2.13 -1.725,3.84 -3.84,3.84h-11.52v11.52h-3.84c-1.38,-0.015 -2.67,0.705 -3.375,1.905c-0.69,1.2 -0.69,2.67 0,3.87c0.705,1.2 1.995,1.92 3.375,1.905h15.36c1.35,0.015 2.61,-0.675 3.315,-1.815c0.3,0.54 0.525,1.14 0.525,1.815c0,2.13 -1.725,3.84 -3.84,3.84h-11.52v15.36c0,6.345 5.175,11.52 11.52,11.52h107.52c6.345,0 11.52,-5.175 11.52,-11.52v-138.24c0,-6.345 -5.175,-11.52 -11.52,-11.52zM65.28,49.92h69.12v46.08h-69.12zM76.8,61.44v7.68h46.08v-7.68zM76.8,76.8v7.68h46.08v-7.68z"></path></g></g></g></svg>