<svg xmlns="http://www.w3.org/2000/svg" x="0px" y="0px"
width="50" height="50"
viewBox="0 0 192 192"
style=" fill:#000000;"><g fill="none" fill-rule="nonzero" stroke="none" stroke-width="1" stroke-linecap="butt" stroke-linejoin="miter" stroke-miterlimit="10" stroke-dasharray="" stroke-dashoffset="0" font-family="none" font-weight="none" font-size="none" text-anchor="none" style="mix-blend-mode: normal"><path d="M0,192v-192h192v192z" fill="none"></path><g fill="#000000"><g id="surface1"><path d="M103.32,19.2c-34.05,0 -46.695,26.31 -36.96,48.6c-1.215,0.81 -3.165,3.345 -2.76,7.8c0.81,8.1 4.455,10.035 6.48,10.44c0.81,7.695 5.685,16.665 8.52,17.88c0,5.265 -0.075,9.675 -0.48,15.36c-6.21,16.305 -45.9,12.525 -51,41.76c-0.225,1.275 1.095,4.08 3.72,4.08h130.44c3.9,0 3.825,-2.88 3.6,-4.2c-5.19,-29.115 -44.79,-25.35 -51,-41.64c-0.405,-6.09 -0.48,-10.095 -0.48,-15.36c2.835,-1.215 7.35,-10.59 8.16,-17.88c2.025,0 5.265,-2.445 6.48,-10.56c0.405,-4.455 -1.26,-7.275 -2.88,-7.68c6.48,-8.1 5.31,-41.28 -18.6,-41.28zM58.2,38.4c-25.635,0.435 -36.87,20.835 -29.16,38.28c-0.825,0.405 -2.445,2.55 -2.04,6.24c0.825,6.57 3.27,8.16 4.92,8.16c0.81,6.15 4.44,13.05 6.48,14.28c0,4.095 0.045,3.975 -0.36,8.88c-3.33,10.5 -38.04,9.72 -38.04,35.52c0,0 0,3.84 3.84,3.84h17.4c5.865,-16.59 21.81,-22.98 33.84,-27.72c6.63,-2.61 13.425,-5.25 15.48,-8.52c0.225,-3.57 0.345,-6.6 0.36,-9.96c-3.645,-4.17 -6.36,-10.665 -7.68,-16.2c-3.12,-2.31 -6.495,-6.75 -7.32,-15c-0.36,-3.915 0.465,-7.17 1.8,-9.72c-3.045,-9.465 -2.85,-19.35 0.48,-28.08zM145.92,38.4c-3.675,0 -8.01,0.3 -12.12,0.96c3.075,9.015 3.195,19.785 0.48,27.48c1.2,2.64 1.755,5.85 1.44,9.36l-0.12,0.24v0.24c-1.14,7.545 -3.915,12.135 -7.2,14.64c-1.245,5.19 -3.78,11.745 -7.32,15.96c0.015,3.3 0.135,6.27 0.36,10.08c2.055,3.27 8.865,5.91 15.48,8.52c12.015,4.725 27.96,11.13 33.84,27.72h17.4c3.84,0 3.84,-3.72 3.84,-3.72c0.015,-29.7 -32.865,-22.665 -37.8,-36.24c-0.42,-4.53 -0.48,-4.11 -0.48,-8.64c2.055,-1.23 5.835,-8.145 6.24,-13.92c1.65,0 4.095,-1.695 4.92,-8.28c0.405,-3.285 -0.81,-5.715 -2.04,-6.12c4.95,-6.585 4.14,-32.52 -14.4,-32.52z"></path></g></g></g></svg>