<svg xmlns="http://www.w3.org/2000/svg" x="0px" y="0px"
width="50" height="50"
viewBox="0 0 192 192"
style=" fill:#000000;"><g fill="none" fill-rule="nonzero" stroke="none" stroke-width="1" stroke-linecap="butt" stroke-linejoin="miter" stroke-miterlimit="10" stroke-dasharray="" stroke-dashoffset="0" font-family="none" font-weight="none" font-size="none" text-anchor="none" style="mix-blend-mode: normal"><path d="M0,192v-192h192v192z" fill="none"></path><g fill="#333333"><g id="surface1"><path d="M96,3.84c-33.945,0 -61.44,27.495 -61.44,61.44c0,28.065 14.82,58.23 29.4,81.6c14.58,23.37 29.16,39.96 29.16,39.96c0.735,0.825 1.785,1.305 2.88,1.305c1.095,0 2.145,-0.48 2.88,-1.305c0,0 14.595,-16.935 29.16,-40.44c14.565,-23.505 29.4,-53.595 29.4,-81.12c0,-33.945 -27.495,-61.44 -61.44,-61.44zM96,11.52c29.805,0 53.76,23.955 53.76,53.76c0,24.705 -13.965,54.075 -28.2,77.04c-11.925,19.245 -22.02,31.635 -25.56,35.88c-3.57,-4.215 -13.665,-16.335 -25.56,-35.4c-14.22,-22.8 -28.2,-52.215 -28.2,-77.52c0,-29.805 23.955,-53.76 53.76,-53.76zM96,42.24c-14.805,0 -26.88,12.075 -26.88,26.88c0,14.805 12.075,26.88 26.88,26.88c14.805,0 26.88,-12.075 26.88,-26.88c0,-14.805 -12.075,-26.88 -26.88,-26.88zM96,49.92c10.65,0 19.2,8.55 19.2,19.2c0,10.65 -8.55,19.2 -19.2,19.2c-10.65,0 -19.2,-8.55 -19.2,-19.2c0,-10.65 8.55,-19.2 19.2,-19.2z"></path></g></g></g></svg>