<svg xmlns="http://www.w3.org/2000/svg" x="0px" y="0px"
width="50" height="50"
viewBox="0 0 171 171"
style=" fill:#000000;"><g fill="none" fill-rule="nonzero" stroke="none" stroke-width="1" stroke-linecap="butt" stroke-linejoin="miter" stroke-miterlimit="10" stroke-dasharray="" stroke-dashoffset="0" font-family="none" font-weight="none" font-size="none" text-anchor="none" style="mix-blend-mode: normal"><path d="M0,171.99219v-171.99219h171.99219v171.99219z" fill="none"></path><g fill="#000000"><g id="surface1"><path d="M158.05477,26.83898c-25.31602,-5.5575 -40.26516,-13.42617 -51.17977,-19.1707c-8.4832,-4.44867 -14.6018,-7.66828 -21.375,-7.66828c-6.7732,0 -12.8918,3.21961 -21.375,7.66828c-10.91461,5.74453 -25.86375,13.6132 -51.17977,19.1707l-2.68523,0.58781v2.75203c0,104.1764 73.06242,139.12453 73.81055,139.45852l1.49625,0.69469l1.48289,-0.74812c0.73477,-0.38742 73.69031,-38.68875 73.69031,-139.40508v-2.75203zM99.18,107.73h-27.36l6.19875,-27.89438c-3.72727,-2.44477 -6.19875,-6.63961 -6.19875,-11.43562c0,-7.5614 6.1186,-13.68 13.68,-13.68c7.56141,0 13.68,6.1186 13.68,13.68c0,4.79602 -2.47148,8.99086 -6.19875,11.43562z"></path></g></g></g></svg>