<svg xmlns="http://www.w3.org/2000/svg" x="0px" y="0px"
width="50" height="50"
viewBox="0 0 192 192"
style=" fill:#000000;"><g fill="none" fill-rule="nonzero" stroke="none" stroke-width="1" stroke-linecap="butt" stroke-linejoin="miter" stroke-miterlimit="10" stroke-dasharray="" stroke-dashoffset="0" font-family="none" font-weight="none" font-size="none" text-anchor="none" style="mix-blend-mode: normal"><path d="M0,192v-192h192v192z" fill="none"></path><g fill="#333333"><path d="M96,19.2c-42.33966,0 -76.8,34.46034 -76.8,76.8c0,42.33966 34.46034,76.8 76.8,76.8c42.33966,0 76.8,-34.46034 76.8,-76.8c0,-42.33966 -34.46034,-76.8 -76.8,-76.8zM96,32c2.16309,0 4.2929,0.10431 6.4,0.3125v6.0875h12.8v-3.475c12.95121,4.04954 24.05593,12.13366 32,22.7375v19.1375l6.4,12.8v6.4h6.4c0,32.40951 -23.94944,59.02132 -55.15,63.325l23.15,-18.525l6.4,-6.4l6.4,-12.8v-6.4l-6.4,-6.4h-6.4l-6.4,-6.4l-6.4,-6.4h-12.8l-6.4,6.4v6.4l-6.4,6.4v12.8l12.8,6.4l-12.65,25.2875c-32.46917,-3.13272 -57.75,-30.37799 -57.75,-63.6875c0,-20.97688 10.06922,-39.49981 25.6,-51.1625v6.3625l-6.4,6.4v12.8l6.4,19.2l25.6,12.8h6.4v-6.4l-19.2,-6.4v-12.8h19.2l6.4,-12.8l12.8,-6.4v-6.4l-19.2,-12.8l-8.95,-4.475c4.92305,-1.20797 10.04728,-1.925 15.35,-1.925zM89.6,83.2v6.4h12.8v-6.4z"></path></g></g></svg>