<svg xmlns="http://www.w3.org/2000/svg" x="0px" y="0px"
width="50" height="50"
viewBox="0 0 192 192"
style=" fill:#000000;"><g fill="none" fill-rule="nonzero" stroke="none" stroke-width="1" stroke-linecap="butt" stroke-linejoin="miter" stroke-miterlimit="10" stroke-dasharray="" stroke-dashoffset="0" font-family="none" font-weight="none" font-size="none" text-anchor="none" style="mix-blend-mode: normal"><path d="M0,192v-192h192v192z" fill="none"></path><g fill="#ffffff"><g id="surface1"><path d="M96,0c-13.44,0 -26.13,4.965 -36.12,13.8c-11.13,9.99 -17.64,24.6 -17.64,39.96c0,4.23 3.45,7.68 7.68,7.68h7.68c4.23,0 7.68,-3.45 7.68,-7.68c0,-8.835 3.795,-16.89 10.32,-23.04c5.76,-4.995 12.72,-7.68 20.4,-7.68c1.155,0 2.325,-0.03 3.48,0.36c14.205,1.53 25.35,13.05 26.88,26.88c1.53,12.675 -5.07,24.57 -16.2,30.72c-16.125,8.445 -26.04,24.57 -26.04,42.24v22.68c0,4.23 3.45,7.68 7.68,7.68h7.68c4.23,0 7.68,-3.45 7.68,-7.68v-22.68c0,-8.835 5.355,-17.235 13.8,-21.84c19.59,-10.365 30.765,-31.515 28.08,-53.4c-2.31,-24.96 -22.35,-44.955 -46.92,-47.64c-1.92,-0.39 -4.2,-0.36 -6.12,-0.36zM88.32,168.96c-2.115,0 -3.84,1.71 -3.84,3.84v15.36c0,2.13 1.725,3.84 3.84,3.84h15.36c2.13,0 3.84,-1.71 3.84,-3.84v-15.36c0,-2.13 -1.71,-3.84 -3.84,-3.84z"></path></g></g></g></svg>