<svg xmlns="http://www.w3.org/2000/svg" x="0px" y="0px"
width="50" height="50"
viewBox="0 0 192 192"
style=" fill:#000000;"><g fill="none" fill-rule="nonzero" stroke="none" stroke-width="1" stroke-linecap="butt" stroke-linejoin="miter" stroke-miterlimit="10" stroke-dasharray="" stroke-dashoffset="0" font-family="none" font-weight="none" font-size="none" text-anchor="none" style="mix-blend-mode: normal"><path d="M0,192v-192h192v192z" fill="none"></path><g fill="#333333"><path d="M78,24c-0.71993,-0.00255 -1.43444,0.12447 -2.10937,0.375l-32.41406,12.16406c-11.69259,4.38659 -19.47656,15.61395 -19.47656,28.10156v73.35937c0.00033,3.31357 2.68643,5.99967 6,6h18v18c0.00033,3.31357 2.68643,5.99967 6,6h84c3.31357,-0.00033 5.99967,-2.68643 6,-6v-18h18c3.31357,-0.00033 5.99967,-2.68643 6,-6v-73.35937c0,-12.48762 -7.78397,-23.71497 -19.47656,-28.10156l-32.41406,-12.16406c-0.67494,-0.25053 -1.38945,-0.37755 -2.10937,-0.375zM79.5,36h33l-16.5,60l36,-30l-12,-12l10.125,-11.55469l14.20313,5.32031c7.0514,2.64541 11.67187,9.34662 11.67187,16.875v67.35937h-12v-54c0.0306,-2.16382 -1.10625,-4.17649 -2.97524,-5.26733c-1.86899,-1.09084 -4.18054,-1.09084 -6.04953,0c-1.86899,1.09084 -3.00584,3.10351 -2.97524,5.26733v59.03906c-0.10581,0.64412 -0.10581,1.30119 0,1.94531v17.01563h-72v-17.03906c0.10581,-0.64412 0.10581,-1.30119 0,-1.94531v-59.01563c0.02541,-1.62382 -0.60845,-3.1886 -1.7568,-4.33695c-1.14835,-1.14835 -2.71313,-1.78221 -4.33695,-1.7568c-1.59131,0.02483 -3.10758,0.6808 -4.21522,1.82361c-1.10764,1.14281 -1.71593,2.67883 -1.69103,4.27014v54h-12v-67.35937c0,-7.52838 4.62046,-14.22959 11.67187,-16.875l14.20313,-5.32031l10.125,11.55469l-12,12l36,30zM102,108c-3.31371,0 -6,2.68629 -6,6c0,3.31371 2.68629,6 6,6c3.31371,0 6,-2.68629 6,-6c0,-3.31371 -2.68629,-6 -6,-6zM102,132c-3.31371,0 -6,2.68629 -6,6c0,3.31371 2.68629,6 6,6c3.31371,0 6,-2.68629 6,-6c0,-3.31371 -2.68629,-6 -6,-6z"></path></g></g></svg>