<svg xmlns="http://www.w3.org/2000/svg" x="0px" y="0px"
width="50" height="50"
viewBox="0 0 192 192"
style=" fill:#000000;"><g fill="none" fill-rule="nonzero" stroke="none" stroke-width="1" stroke-linecap="butt" stroke-linejoin="miter" stroke-miterlimit="10" stroke-dasharray="" stroke-dashoffset="0" font-family="none" font-weight="none" font-size="none" text-anchor="none" style="mix-blend-mode: normal"><path d="M0,192v-192h192v192z" fill="none"></path><g fill="#000000"><g id="surface1"><path d="M138.24,42.24h-84.48c-29.64,0 -53.76,24.12 -53.76,53.76c0,29.64 24.12,53.76 53.76,53.76h84.48c29.64,0 53.76,-24.12 53.76,-53.76c0,-29.64 -24.12,-53.76 -53.76,-53.76zM138.24,142.08c-25.41,0 -46.08,-20.67 -46.08,-46.08c0,-25.41 20.67,-46.08 46.08,-46.08c25.41,0 46.08,20.67 46.08,46.08c0,25.41 -20.67,46.08 -46.08,46.08z"></path></g></g></g></svg>