<svg xmlns="http://www.w3.org/2000/svg" x="0px" y="0px"
width="50" height="50"
viewBox="0 0 192 192"
style=" fill:#000000;"><g fill="none" fill-rule="nonzero" stroke="none" stroke-width="1" stroke-linecap="butt" stroke-linejoin="miter" stroke-miterlimit="10" stroke-dasharray="" stroke-dashoffset="0" font-family="none" font-weight="none" font-size="none" text-anchor="none" style="mix-blend-mode: normal"><path d="M0,192v-192h192v192z" fill="none"></path><g fill="#000000"><g id="surface1"><path d="M80.64,0c-6.315,0 -11.52,5.205 -11.52,11.52v7.68h-30c-0.48,-0.09 -0.96,-0.09 -1.44,0h-6.96c-0.12,0 -0.24,0 -0.36,0c-2.115,0.105 -3.765,1.905 -3.66,4.02c0.105,2.115 1.905,3.765 4.02,3.66h4.2l13.8,155.52c0.48,5.37 5.055,9.6 10.44,9.6h73.68c5.385,0 9.96,-4.23 10.44,-9.6l13.8,-155.52h4.2c1.38,0.015 2.67,-0.705 3.375,-1.905c0.69,-1.2 0.69,-2.67 0,-3.87c-0.705,-1.2 -1.995,-1.92 -3.375,-1.905h-38.4v-7.68c0,-6.315 -5.205,-11.52 -11.52,-11.52zM80.64,7.68h30.72c2.16,0 3.84,1.68 3.84,3.84v7.68h-38.4v-7.68c0,-2.16 1.68,-3.84 3.84,-3.84zM42.6,26.88h106.8l-13.8,154.92c-0.12,1.335 -1.545,2.52 -2.76,2.52h-73.68c-1.215,0 -2.64,-1.185 -2.76,-2.52zM72.6,38.28c-0.165,0.03 -0.33,0.075 -0.48,0.12c-1.785,0.405 -3.045,2.01 -3,3.84v126.72c-0.015,1.38 0.705,2.67 1.905,3.375c1.2,0.69 2.67,0.69 3.87,0c1.2,-0.705 1.92,-1.995 1.905,-3.375v-126.72c0.045,-1.11 -0.405,-2.175 -1.2,-2.925c-0.81,-0.765 -1.905,-1.14 -3,-1.035zM95.64,38.28c-0.165,0.03 -0.33,0.075 -0.48,0.12c-1.785,0.405 -3.045,2.01 -3,3.84v126.72c-0.015,1.38 0.705,2.67 1.905,3.375c1.2,0.69 2.67,0.69 3.87,0c1.2,-0.705 1.92,-1.995 1.905,-3.375v-126.72c0.045,-1.11 -0.405,-2.175 -1.2,-2.925c-0.81,-0.765 -1.905,-1.14 -3,-1.035zM118.68,38.28c-0.165,0.03 -0.33,0.075 -0.48,0.12c-1.785,0.405 -3.045,2.01 -3,3.84v126.72c-0.015,1.38 0.705,2.67 1.905,3.375c1.2,0.69 2.67,0.69 3.87,0c1.2,-0.705 1.92,-1.995 1.905,-3.375v-126.72c0.045,-1.11 -0.405,-2.175 -1.2,-2.925c-0.81,-0.765 -1.905,-1.14 -3,-1.035z"></path></g></g></g></svg>