<svg xmlns="http://www.w3.org/2000/svg" x="0px" y="0px"
width="50" height="50"
viewBox="0 0 192 192"
style=" fill:#000000;"><g fill="none" fill-rule="nonzero" stroke="none" stroke-width="1" stroke-linecap="butt" stroke-linejoin="miter" stroke-miterlimit="10" stroke-dasharray="" stroke-dashoffset="0" font-family="none" font-weight="none" font-size="none" text-anchor="none" style="mix-blend-mode: normal"><path d="M0,192v-192h192v192z" fill="none"></path><g fill="#333333"><g id="surface1"><path d="M118.785,124.905c-0.57,-6.195 -0.345,-10.515 -0.345,-16.17c2.805,-1.47 7.83,-10.845 8.67,-18.765c2.205,-0.18 5.685,-2.325 6.705,-10.815c0.54,-4.56 -1.635,-7.125 -2.97,-7.935c3.585,-10.785 11.04,-44.16 -13.77,-47.61c-2.565,-4.485 -9.105,-6.75 -17.595,-6.75c-34.005,0.63 -38.1,25.68 -30.645,54.36c-1.335,0.81 -3.51,3.375 -2.97,7.935c1.035,8.49 4.5,10.635 6.705,10.815c0.84,7.92 6.06,17.295 8.88,18.765c0,5.655 0.21,9.975 -0.36,16.17c-6.72,18.09 -52.11,13.005 -54.21,47.895h145.92c-2.1,-34.89 -47.295,-29.805 -54.015,-47.895z"></path></g></g></g></svg>